:FULLY-SPECIFIED
:FORCE-ALL-JOINTS-BE-3DOF
:DEGREES
2854
root -6.08764 13.2613 -28.8109 160.989 -66.8493 -159.22
lfemur -65.9535 45.1179 -6.05092
ltibia 77.2124 -0 0
lfoot -4.96657 -6.25995 0.000911336
ltoes -29.1011 0 0
rfemur -31.3925 -19.1596 22.267
rtibia 88.9267 -0 0
rfoot -40.8798 -29.0982 -0.000818906
rtoes -14.0041 0 0
lowerback 15.6552 5.61447 1.07633
upperback -4.52976 7.99483 1.64575
thorax -13.9658 3.69068 -0.953778
lowerneck -2.56803 9.62568 2.19864
upperneck 9.15017 12.5319 2.06808
head 3.40448 6.33106 0.769043
lclavicle 0 0 0
lhumerus 5.35395 12.3457 84.302
lradius 93.4011 -0 0
lwrist -19.0135 0 0
lhand -39.5599 28.6485 5.92284e-05
lfingers 0 0 0
lthumb -12.5435 58.2519 5.78196e-05
rclavicle 0 0 0
rhumerus -59.1871 51.1308 -111.594
rradius 113.566 -0 0
rwrist -83.7155 0 0
rhand 7.89772 -26.2178 0.000200406
rfingers 0 0 0
rthumb 33.1297 -53.1904 0.000234628
2855
root -6.08806 13.2595 -28.8096 160.94 -66.8585 -159.151
lfemur -66.0105 45.1076 -6.04658
ltibia 77.2556 -0 0
lfoot -4.99691 -6.27538 0.000861039
ltoes -29.1472 0 0
rfemur -31.4188 -19.1511 22.2978
rtibia 88.958 -0 0
rfoot -40.8725 -29.1556 -0.000773709
rtoes -14.0202 0 0
lowerback 15.6749 5.60924 1.10581
upperback -4.5352 7.99511 1.65001
thorax -13.9806 3.68783 -0.967579
lowerneck -2.57302 9.62683 2.19948
upperneck 9.1534 12.5331 2.06946
head 3.40652 6.33175 0.769831
lclavicle 0 0 0
lhumerus 5.36999 12.3532 84.3039
lradius 93.3881 -0 0
lwrist -19.0057 0 0
lhand -39.5574 28.661 5.59595e-05
lfingers 0 0 0
lthumb -12.5411 58.2645 5.46285e-05
rclavicle 0 0 0
rhumerus -59.1892 51.1487 -111.594
rradius 113.562 -0 0
rwrist -83.6932 0 0
rhand 7.90857 -26.2083 0.000189346
rfingers 0 0 0
rthumb 33.1401 -53.1788 0.000221679
2856
root -6.08842 13.2578 -28.8084 160.892 -66.8675 -159.085
lfemur -66.0659 45.0976 -6.04236
ltibia 77.2975 -0 0
lfoot -5.02638 -6.29037 0.000804341
ltoes -29.1921 0 0
rfemur -31.4443 -19.1429 22.3278
rtibia 88.9884 -0 0
rfoot -40.8654 -29.2113 -0.000722761
rtoes -14.0359 0 0
lowerback 15.6939 5.60414 1.13446
upperback -4.54048 7.99539 1.65416
thorax -13.9949 3.68506 -0.980989
lowerneck -2.57787 9.62796 2.2003
upperneck 9.15655 12.5343 2.0708
head 3.40849 6.33242 0.770596
lclavicle 0 0 0
lhumerus 5.38559 12.3605 84.3057
lradius 93.3755 -0 0
lwrist -18.9981 0 0
lhand -39.5551 28.6731 5.22747e-05
lfingers 0 0 0
lthumb -12.5388 58.2767 5.10313e-05
rclavicle 0 0 0
rhumerus -59.1913 51.1661 -111.594
rradius 113.558 -0 0
rwrist -83.6716 0 0
rhand 7.91911 -26.1991 0.000176878
rfingers 0 0 0
rthumb 33.1501 -53.1674 0.000207082
2857
root -6.08874 13.2562 -28.8072 160.846 -66.8761 -159.021
lfemur -66.1194 45.0879 -6.03827
ltibia 77.3381 -0 0
lfoot -5.05487 -6.30485 0.000742208
ltoes -29.2354 0 0
rfemur -31.4689 -19.1349 22.3568
rtibia 89.0178 -0 0
rfoot -40.8585 -29.2651 -0.00066693
rtoes -14.051 0 0
lowerback 15.7123 5.59921 1.16214
upperback -4.54559 7.99566 1.65817
thorax -14.0087 3.68238 -0.99395
lowerneck -2.58255 9.62904 2.20109
upperneck 9.15959 12.5354 2.07209
head 3.4104 6.33307 0.771336
lclavicle 0 0 0
lhumerus 5.40066 12.3676 84.3075
lradius 93.3633 -0 0
lwrist -18.9907 0 0
lhand -39.5528 28.6848 4.82367e-05
lfingers 0 0 0
lthumb -12.5366 58.2886 4.70893e-05
rclavicle 0 0 0
rhumerus -59.1934 51.1829 -111.594
rradius 113.554 -0 0
rwrist -83.6507 0 0
rhand 7.9293 -26.1902 0.000163214
rfingers 0 0 0
rthumb 33.1598 -53.1565 0.000191085
